<svg t="1685715829162" class="icon" viewBox="0 0 1280 1024" version="1.1" xmlns="http://www.w3.org/2000/svg" p-id="884" width="200" height="200"><path d="M844.361537 36.337549a23.978843 23.978843 0 0 1 16.396211 29.788912l-273.023994 940.443333a23.978843 23.978843 0 0 1-29.542723 16.396211l-122.011444-35.402029a23.978843 23.978843 0 0 1-16.396211-29.788912L692.561181 17.380968a23.978843 23.978843 0 0 1 29.542722-16.396211z" p-id="885"></path><path d="M1272.632537 494.594413l-288.238496-270.414387a24.225032 24.225032 0 0 0-34.023368 0.984757L863.367355 318.076646a23.978843 23.978843 0 0 0 1.62485 34.466509l181.146126 159.530702-181.195364 159.432226a23.831129 23.831129 0 0 0-1.62485 34.466509l87.052556 92.714911a23.978843 23.978843 0 0 0 34.023368 1.181709l288.238496-270.217435a23.880367 23.880367 0 0 0 0-35.106602zM416.976818 318.175121L329.9735 225.361735a23.978843 23.978843 0 0 0-34.023369-0.984758L7.711635 494.397461a23.880367 23.880367 0 0 0 0 35.008126l288.238496 270.217436a23.831129 23.831129 0 0 0 34.023369-0.984758l87.003318-92.813386a23.978843 23.978843 0 0 0-1.62485-34.46651L234.107365 512.073857l181.195365-159.432226a23.831129 23.831129 0 0 0 1.674088-34.46651z" p-id="886"></path></svg>